<?xml version="1.0" encoding="utf-8"?>
<svg viewBox="-6.021 -6.69 512.042 513.38" width="512.042" height="513.38" xmlns="http://www.w3.org/2000/svg">
  <path id="path-8" d="M 134.82 71.701 C 129.683 57.388 139.432 14.006 139.432 14.006 L 126.42 27.639 L 120.011 38.926 L 114.633 54.824 L 109.24 70.462 L 109.24 77.893 L 109.24 85.334 L 113.086 96.355 L 120.97 109.386 L 118.156 114.258 L 112.508 115.54 L 106.614 117.072 L 94.06 114.258 L 81.487 111.434 L 62.524 102.461 L 65.854 121.434 L 70.721 138.609 L 71.753 150.406 L 72.774 162.198 L 69.7 173.22 L 66.62 184.246 L 52.495 184.092 L 48.65 184.092 L 45.055 184.092 L 36.115 178.183 L 27.624 172.29 L 18.646 159.215 L 9.687 146.141 L 6.343 141.529 L 3.273 136.657 L 4.579 160.401 L 6.112 169.374 L 13.037 184.761 L 20.212 200.144 L 27.137 208.341 L 33.802 216.298 L 45.339 221.931 L 56.876 227.57 C 58.645 241.338 58.394 251.53 36.631 257.573 L 21.759 261.925 L 2.782 269.881 L 23.292 282.184 L 44.062 294.227 L 50.717 302.184 L 57.647 310.376 L 62.259 320.636 L 67.136 330.891 L 67.136 335.503 L 67.136 340.115 L 60.977 342.992 C 52.886 351.411 -8.683 341.541 -5.931 342.679 L 1.61 350.765 L 6.738 354.611 L 43.657 372.547 L 62.37 371.015 L 81.087 369.733 L 96.624 364.22 L 97.39 375.762 L 98.156 387.289 L 88.928 402.421 L 79.955 417.288 L 79.955 418.31 L 79.955 419.085 L 108.927 417.543 L 137.89 416.006 L 147.639 419.341 L 157.378 422.42 L 159.764 436.347 L 159.764 441.475 L 159.764 446.603 L 154.376 454.034 L 149.244 461.474 L 128.228 471.98 L 107.202 482.24 L 135.586 482.148 L 148.661 480.866 L 163.527 475.739 L 178.149 470.611 L 186.857 463.951 L 195.319 457.537 L 199.165 450.361 L 202.76 442.93 L 206.34 441.649 L 209.931 440.367 L 219.935 444.718 L 229.935 458.665 L 233.265 465.59 L 236.339 472.52 L 236.339 478.664 L 238.903 485.073 L 244.031 480.206 L 246.599 475.083 L 246.599 426.001 L 246.599 386.007 L 236.855 386.007 L 227.116 386.007 L 211.984 383.193 L 197.112 380.378 L 177.633 371.14 L 158.145 361.656 L 140.198 343.71 L 122.252 325.764 L 115.076 310.892 L 107.896 295.774 L 104.05 278.84 L 100.465 261.67 L 100.465 249.877 L 100.465 238.08 L 105.583 218.601 L 110.46 198.862 L 117.64 186.559 L 124.565 174.502 L 140.454 158.608 L 156.347 142.965 L 168.144 136.045 L 179.946 129.13 L 195.83 124.253 L 211.984 119.386 L 229.164 119.386 L 246.599 119.386 L 246.599 93.748 L 246.599 67.855 L 217.877 16.575 L 201.222 41.697 L 191.469 61.18 L 181.474 69.903 L 171.224 78.365 L 161.73 81.445 L 152.256 84.259 L 145.331 82.462 L 138.666 80.674 L 134.82 71.701 Z" style="fill: rgb(255, 154, 0);"/>
  <path id="path-9" d="M 289.894 16.835 L 274.511 16.835 L 274.511 251.414 L 274.511 485.994 L 282.203 485.994 L 289.894 485.994 L 289.894 466.766 L 289.894 446.357 L 292.202 447.542 L 316.303 461.648 L 340.398 475.739 L 342.967 475.739 L 345.27 475.739 L 351.169 465.233 L 357.063 456.356 L 289.036 417.254 L 289.099 404.566 L 321.681 421.746 L 351.169 438.661 L 353.472 438.661 L 355.53 438.661 L 361.424 428.406 L 367.072 418.151 L 358.6 413.023 L 350.138 407.891 L 320.659 390.46 L 289.59 373.029 L 289.639 356.268 L 321.946 337.816 L 354.248 319.354 L 358.344 319.354 L 362.446 319.354 L 370.908 324.742 L 379.626 330.125 L 379.626 372.167 L 379.626 414.209 L 391.167 414.209 L 402.7 414.209 L 402.7 379.347 L 402.7 344.741 L 411.75 350.365 L 412.444 382.942 L 413.21 419.341 L 425.769 419.341 L 438.587 419.341 L 438.337 393.448 L 438.337 364.201 L 440.385 365.502 L 459.102 375.762 L 478.07 386.007 L 480.128 382.942 L 482.427 379.607 L 486.022 372.682 L 489.867 365.757 L 490.908 363.839 L 489.867 363.194 L 471.921 352.423 L 453.97 341.912 L 450.919 339.917 L 505.505 308.844 L 499.607 298.589 L 493.964 288.594 L 425.764 324.771 L 418.106 320.101 L 481.709 283.876 L 476.788 275.515 L 470.895 265.255 L 396.199 308.757 L 392.449 306.531 L 382.189 300.126 L 371.93 293.461 L 372.445 250.648 L 373.216 207.835 L 383.471 202.192 L 393.982 196.549 L 430.896 217.83 L 468.075 239.111 L 481.911 221.059 L 416.911 182.251 L 425.508 176.858 L 492.431 214.5 L 499.091 206.553 L 506.021 196.298 L 504.99 195.267 L 503.968 194.241 L 478.335 179.634 L 452.688 164.762 L 451.927 164.251 L 450.895 163.48 L 494.393 138.488 L 478.07 117.072 L 459.102 128.614 L 438.399 140.888 L 438.337 83.493 L 425.769 83.493 L 413.21 83.493 L 413.88 153.62 L 402.7 161.586 L 402.7 123.487 L 402.7 88.616 L 391.167 88.616 L 379.626 88.616 L 379.626 131.694 L 379.626 174.502 L 369.12 180.4 L 358.86 186.294 L 289.614 148.348 L 289.639 132.734 L 367.544 86.62 L 354.041 65.773 L 291.234 103.242 L 290.92 87.661 L 357.063 47.856 L 343.988 26.314 L 289.894 57.388 L 289.894 16.835 Z M 292.708 180.916 L 295.272 180.916 L 311.691 190.655 L 328.355 200.144 L 328.355 201.677 L 328.355 203.474 L 310.659 213.984 L 292.973 224.49 L 291.426 224.49 L 289.894 224.49 L 289.894 202.708 L 289.894 180.916 L 292.708 180.916 Z M 346.808 227.825 L 348.856 230.904 L 348.856 251.414 L 348.856 271.929 L 346.552 275.515 L 344.504 278.84 L 323.478 266.802 L 302.713 254.744 L 299.272 252.947 L 322.712 237.829 L 344.755 224.755 L 346.808 227.825 Z M 289.894 278.334 L 331.213 301.668 L 328.355 303.466 L 310.659 313.711 L 292.708 323.966 L 289.947 325.417 L 289.894 278.334 Z" style="fill: rgb(175, 253, 252);"/>
</svg>