<?xml version="1.0" encoding="UTF-8" standalone="no"?>
<svg
   version="1.0"
   width="428.25pt"
   height="427.5pt"
   viewBox="0 0 428.25 427.5"
   preserveAspectRatio="xMidYMid meet"
   id="svg1"
   sodipodi:docname="Ring.svg"
   inkscape:version="1.3 (0e150ed6c4, 2023-07-21)"
   xmlns:inkscape="http://www.inkscape.org/namespaces/inkscape"
   xmlns:sodipodi="http://sodipodi.sourceforge.net/DTD/sodipodi-0.dtd"
   xmlns="http://www.w3.org/2000/svg"
   xmlns:svg="http://www.w3.org/2000/svg">
  <defs
     id="defs1" />
  <sodipodi:namedview
     id="namedview1"
     pagecolor="#505050"
     bordercolor="#eeeeee"
     borderopacity="1"
     inkscape:showpageshadow="0"
     inkscape:pageopacity="0"
     inkscape:pagecheckerboard="0"
     inkscape:deskcolor="#505050"
     inkscape:document-units="pt"
     inkscape:zoom="1.5421053"
     inkscape:cx="285.32423"
     inkscape:cy="285"
     inkscape:window-width="1920"
     inkscape:window-height="1057"
     inkscape:window-x="-8"
     inkscape:window-y="-8"
     inkscape:window-maximized="1"
     inkscape:current-layer="svg1" />
  <g
     transform="translate(0,427.5)scale(.075,.075)"
     fill="#E7C220"
     id="g1"
     style="fill:#000000;fill-opacity:1">
    <path
       id="path1"
       d="M 2850 -5670 c -3 0 -13 37 -23 82 -10 46 -23 99 -28 119 l -9 36 -93 7 c -50 4 -128 11 -172 17 -44 5 -127 19 -185 30 -58 12 -157 37 -220 56 -63 19 -155 50 -205 69 -49 19 -139 58 -198 87 l -109 51 -88 -95 c -49 -51 -89 -92 -89 -89 -1 3 15 54 34 115 19 61 35 116 35 122 0 7 -40 40 -90 73 -49 33 -134 96 -187 139 -54 44 -150 132 -214 198 -64 65 -144 154 -179 198 -34 43 -90 120 -123 170 -33 49 -61 91 -62 93 -1 1 -53 -14 -116 -33 -63 -19 -119 -35 -124 -35 -5 0 32 40 84 88 l 94 87 -36 71 c -20 39 -54 115 -76 168 -23 54 -59 154 -81 223 -22 68 -50 176 -64 241 -13 64 -30 164 -36 222 -7 58 -15 139 -18 180 l -7 75 -113 26 c -62 15 -116 29 -119 32 -3 4 5 9 18 12 13 3 67 16 119 28 l 95 23 7 74 c 4 41 12 120 18 175 6 55 22 152 36 216 13 64 40 167 60 230 20 63 49 147 65 187 16 39 52 122 81 183 l 52 111 -94 89 c -52 48 -89 88 -82 89 6 0 62 -16 123 -35 62 -19 113 -35 115 -35 2 0 30 40 63 88 32 48 87 124 122 168 34 43 114 132 178 197 64 66 160 154 214 198 53 43 138 106 187 139 56 37 90 67 90 78 0 9 -16 66 -35 127 -19 61 -35 112 -35 115 1 3 42 -39 93 -94 l 93 -98 82 41 c 45 22 135 62 200 87 64 26 166 61 227 79 61 18 157 42 215 54 58 11 142 25 188 31 45 5 122 13 172 16 l 89 7 28 118 c 14 66 30 119 33 119 3 0 19 -53 33 -119 l 28 -118 92 -7 c 51 -4 126 -11 167 -16 41 -5 124 -19 185 -31 61 -11 161 -36 223 -55 61 -19 165 -55 230 -80 64 -26 153 -64 196 -86 l 80 -40 92 98 c 51 55 93 97 93 94 0 -3 -17 -61 -38 -130 l -39 -124 102 -69 c 55 -38 143 -103 195 -145 51 -42 144 -129 206 -192 61 -63 140 -151 175 -195 34 -43 89 -119 121 -167 33 -48 63 -88 67 -88 4 0 58 16 121 35 63 19 116 33 118 31 2 -2 -38 -42 -88 -90 l -92 -86 51 -108 c 28 -59 65 -143 82 -187 17 -44 47 -129 66 -189 18 -60 45 -161 58 -225 14 -64 30 -161 36 -216 6 -55 14 -134 18 -175 l 7 -74 118 -27 c 65 -15 121 -30 124 -33 3 -3 -8 -8 -23 -12 -16 -4 -72 -16 -124 -28 l -95 -22 -7 -75 c -3 -40 -11 -120 -17 -177 -6 -56 -22 -156 -36 -222 -14 -65 -43 -175 -65 -243 -22 -69 -58 -169 -81 -223 -22 -53 -56 -129 -76 -167 l -35 -70 99 -93 98 -93 -115 35 c -63 18 -122 36 -130 39 -10 3 -31 -20 -65 -72 -27 -43 -81 -118 -119 -168 -39 -49 -124 -146 -190 -214 -67 -68 -165 -159 -219 -202 -53 -43 -138 -106 -187 -139 -50 -33 -90 -64 -90 -68 0 -4 16 -58 35 -121 19 -63 33 -116 31 -118 -2 -2 -42 38 -89 88 l -86 93 -108 -52 c -59 -28 -149 -67 -198 -86 -50 -19 -142 -50 -205 -69 -63 -19 -162 -44 -220 -56 -58 -11 -141 -25 -185 -30 -44 -6 -122 -13 -172 -17 l -93 -7 -9 -36 c -5 -20 -18 -73 -28 -119 -10 -45 -20 -82 -23 -82 z m 45 365 c 125 2 250 10 309 20 55 8 131 23 170 31 39 9 117 29 173 45 55 16 151 49 212 74 61 24 161 70 221 100 60 31 162 92 227 135 65 43 149 104 188 134 39 31 121 107 184 168 62 62 142 149 178 193 36 44 100 133 143 198 43 65 104 167 135 227 30 60 76 160 100 221 25 61 58 157 74 212 16 56 38 145 49 197 11 52 26 136 34 185 8 55 13 178 13 315 0 137 -5 260 -13 315 -8 49 -23 133 -34 185 -11 52 -33 141 -49 197 -16 55 -49 151 -74 212 -24 61 -70 160 -100 221 -31 60 -92 162 -135 227 -43 65 -107 154 -143 198 -36 44 -117 132 -181 195 -64 63 -147 139 -184 168 -37 30 -120 89 -185 132 -65 43 -167 104 -227 135 -60 30 -160 76 -221 100 -61 25 -158 58 -215 75 -57 16 -148 39 -202 50 -53 11 -135 26 -182 32 -49 8 -181 13 -310 13 -137 0 -260 -5 -315 -13 -49 -8 -133 -23 -185 -34 -52 -11 -141 -33 -197 -49 -55 -16 -151 -49 -212 -74 -61 -24 -161 -70 -221 -100 -60 -31 -162 -92 -227 -135 -65 -43 -154 -107 -198 -143 -44 -35 -131 -116 -192 -178 -62 -63 -138 -145 -169 -184 -30 -39 -91 -123 -134 -188 -43 -65 -104 -167 -135 -227 -30 -60 -76 -160 -100 -221 -25 -61 -58 -158 -75 -215 -16 -57 -39 -146 -49 -196 -11 -51 -25 -134 -33 -183 -8 -55 -13 -178 -13 -315 0 -137 5 -260 13 -315 8 -49 23 -133 34 -185 11 -52 33 -141 49 -197 16 -55 49 -151 74 -212 24 -61 70 -161 100 -221 31 -60 92 -162 135 -227 43 -65 107 -154 143 -198 36 -44 116 -131 178 -193 63 -61 145 -137 184 -168 39 -30 123 -91 188 -134 65 -43 167 -104 227 -135 60 -30 160 -76 221 -100 61 -25 157 -58 212 -74 56 -16 145 -38 197 -49 52 -11 136 -25 185 -31 49 -6 103 -13 120 -15 17 -3 125 -3 240 -1 z M 2641 -5250 l -84 0 34 23 c 18 12 53 49 76 82 23 33 42 63 43 66 0 4 -22 35 -49 69 -27 35 -64 71 -82 81 l -34 18 63 1 c 58 0 62 -1 48 -16 -15 -14 -14 -18 3 -42 11 -15 31 -40 44 -56 l 24 -30 39 58 c 37 56 38 59 19 72 -16 12 7 14 176 14 163 0 190 -2 169 -13 -25 -13 -25 -13 -25 -157 0 -144 0 -144 25 -157 21 -11 -4 -13 -160 -13 -131 1 -180 4 -168 11 10 5 18 14 18 18 0 4 -16 29 -36 54 l -37 47 -28 -38 c -16 -20 -29 -45 -29 -54 0 -9 8 -22 18 -27 12 -8 -5 -10 -67 -11 z m 259 10 c 4 0 11 5 18 12 8 8 12 56 12 149 0 97 -4 140 -13 147 -9 8 -21 3 -43 -16 -17 -15 -46 -50 -65 -77 -19 -27 -38 -55 -42 -61 -3 -6 14 -38 39 -70 25 -32 56 -64 67 -71 12 -7 24 -12 27 -13 z m 114 0 c 7 0 17 5 24 12 8 8 12 56 12 149 0 112 -3 139 -16 150 -11 9 -20 10 -32 2 -14 -8 -17 -32 -20 -148 -2 -93 1 -142 9 -151 6 -8 17 -14 23 -14 z M 1850 -5040 c -3 0 -51 26 -108 57 -90 49 -100 58 -81 65 20 8 21 13 15 60 -4 29 -9 55 -12 60 -3 4 -28 -4 -55 -18 -41 -20 -49 -29 -44 -44 4 -11 3 -20 -1 -20 -3 0 -33 16 -65 36 -33 19 -59 37 -59 39 0 3 13 2 30 -1 21 -5 50 4 110 31 44 21 80 41 80 44 0 3 -7 43 -14 88 -8 45 -23 94 -33 109 l -18 28 53 -30 c 28 -16 52 -33 52 -37 0 -5 -4 -6 -9 -3 -5 3 -13 0 -19 -7 -7 -8 -7 -32 -1 -72 6 -32 11 -61 13 -63 2 -1 29 10 60 25 50 24 56 31 51 51 -6 22 -3 22 62 -14 37 -21 88 -50 113 -66 41 -25 43 -28 18 -28 -23 0 -34 -14 -92 -114 -36 -62 -66 -122 -66 -133 0 -10 5 -24 12 -31 7 -7 10 -12 8 -12 z m -92 70 c 12 0 39 38 85 117 37 64 67 124 67 133 0 10 -7 21 -16 24 -9 3 -53 -10 -98 -30 -44 -20 -87 -42 -94 -49 -10 -9 -11 -26 -2 -81 6 -38 18 -79 26 -92 8 -12 22 -22 32 -22 z M 4005 -4959 c -5 0 -4 3 3 6 6 2 12 14 12 26 0 12 -31 74 -68 137 -64 107 -70 115 -98 113 l -29 -2 30 20 c 17 11 48 29 70 41 39 20 39 20 22 1 -12 -14 -15 -26 -10 -39 5 -11 32 -62 62 -114 30 -52 61 -103 69 -113 9 -10 23 -15 34 -11 10 3 18 3 18 0 0 -3 -24 -19 -52 -36 -29 -16 -58 -29 -63 -29 z M 2840 -4859 c -63 1 -162 7 -220 14 -58 7 -150 23 -205 35 -55 12 -147 38 -205 57 -58 19 -164 63 -235 98 -71 34 -170 90 -220 122 -50 33 -124 87 -166 120 -41 33 -115 100 -163 149 -49 49 -120 129 -157 177 -38 49 -93 128 -123 176 -30 48 -70 120 -90 159 -20 39 -53 116 -75 170 -22 54 -51 141 -65 193 -13 52 -32 130 -40 174 -8 44 -20 124 -26 177 -5 53 -10 138 -10 188 0 50 5 134 10 188 6 53 17 132 25 174 8 43 27 122 41 175 14 53 43 141 65 195 22 55 55 131 75 170 20 39 60 111 90 159 30 48 85 127 123 175 37 49 108 129 157 178 48 49 122 116 163 149 42 33 115 87 163 119 49 32 149 87 223 123 74 36 182 81 240 100 58 19 147 44 197 55 51 11 145 26 208 34 63 8 166 15 228 15 61 1 164 -6 227 -14 63 -8 157 -24 207 -35 51 -10 142 -35 203 -55 61 -20 170 -65 243 -101 72 -35 172 -91 222 -124 49 -33 123 -86 163 -119 40 -32 113 -98 162 -147 48 -49 119 -129 156 -178 38 -48 93 -127 123 -175 30 -48 70 -120 90 -159 20 -39 53 -115 75 -170 22 -54 51 -142 65 -195 14 -53 33 -132 41 -175 8 -42 19 -121 25 -174 5 -53 10 -138 10 -188 0 -50 -4 -133 -10 -185 -6 -52 -17 -132 -26 -177 -8 -46 -27 -125 -40 -177 -14 -52 -43 -139 -65 -193 -22 -55 -55 -131 -75 -170 -20 -39 -60 -111 -90 -159 -30 -48 -85 -127 -123 -176 -37 -48 -108 -128 -157 -177 -48 -49 -122 -116 -163 -149 -42 -33 -117 -87 -166 -120 -49 -32 -149 -88 -220 -122 -71 -35 -177 -79 -235 -98 -58 -19 -150 -45 -205 -57 -55 -12 -152 -28 -215 -35 -63 -8 -167 -14 -230 -14 z m 45 84 c 190 3 237 7 345 30 69 14 172 42 230 61 58 19 161 62 230 95 69 33 174 93 235 134 61 40 152 110 202 154 51 45 129 123 174 174 44 50 114 141 154 202 41 61 101 166 134 235 33 69 76 172 95 230 19 58 47 161 61 230 21 99 28 164 32 317 4 124 1 226 -6 290 -7 54 -22 140 -33 192 -11 51 -37 144 -59 207 -21 62 -57 152 -78 199 -22 47 -64 125 -93 173 -28 47 -86 131 -128 186 -41 54 -124 147 -185 205 -61 59 -145 132 -187 164 -43 31 -111 77 -151 102 -40 24 -125 69 -190 100 -64 30 -165 70 -225 89 -59 19 -152 44 -207 55 -55 12 -164 26 -242 33 -112 9 -174 9 -285 0 -79 -7 -190 -22 -248 -33 -58 -11 -159 -39 -225 -61 -65 -22 -169 -64 -231 -93 -61 -30 -165 -90 -230 -134 -66 -44 -160 -115 -210 -159 -50 -44 -121 -115 -158 -157 -38 -43 -92 -111 -122 -152 -30 -40 -74 -106 -98 -145 -24 -40 -65 -118 -91 -173 -25 -54 -64 -152 -86 -217 -21 -65 -48 -166 -60 -226 -11 -59 -25 -169 -32 -244 -8 -106 -8 -171 1 -280 7 -79 21 -187 32 -240 11 -54 38 -153 60 -220 22 -68 68 -182 104 -253 35 -71 90 -168 121 -214 31 -46 82 -116 114 -155 32 -39 103 -114 158 -167 54 -53 137 -124 183 -158 46 -35 126 -87 177 -117 51 -30 127 -71 170 -90 42 -19 127 -52 188 -73 60 -21 146 -47 190 -56 43 -10 118 -24 165 -31 57 -9 157 -12 305 -9 z M 860 -4154 c -4 -31 -7 -36 -16 -25 -6 8 -19 28 -28 46 -9 18 -16 35 -16 40 0 4 5 2 12 -5 7 -7 16 -12 20 -12 5 0 18 21 28 46 11 25 20 52 20 60 0 12 -12 14 -58 12 -47 -2 -57 -6 -56 -20 1 -10 -2 -15 -7 -12 -5 3 -23 29 -39 57 -16 29 -30 55 -30 60 0 4 12 0 27 -10 20 -13 48 -18 111 -18 l 84 0 25 60 c 13 33 28 80 31 105 l 7 45 28 -47 c 15 -26 27 -49 27 -51 0 -2 -10 -2 -23 0 -21 4 -26 -2 -45 -52 -12 -31 -22 -61 -22 -66 0 -6 29 -9 68 -7 56 3 67 6 66 20 -1 10 2 16 6 13 5 -3 22 -30 39 -60 17 -30 31 -57 31 -60 0 -3 -11 2 -24 11 -16 10 -58 17 -119 21 l -94 6 -23 -59 c -14 -32 -27 -76 -30 -98 z M 4884 -4135 c -14 -19 -14 -19 -14 5 0 22 -17 35 -117 93 -64 37 -123 67 -133 67 -9 0 -21 -5 -28 -12 -7 -7 -12 -9 -12 -5 0 4 23 49 51 99 28 51 58 102 65 113 13 19 14 18 14 -7 0 -23 14 -34 114 -92 62 -36 122 -66 133 -66 10 0 25 6 32 12 8 7 -10 -32 -39 -87 -29 -55 -59 -109 -66 -120 z m 13 85 c 16 0 25 8 29 25 4 14 5 28 3 29 -2 2 -56 34 -119 70 -63 37 -123 66 -135 64 -13 -2 -21 -12 -23 -29 -3 -24 8 -33 110 -92 62 -37 123 -67 135 -67 z M 468 -3048 l -18 -27 0 55 c 0 37 3 50 10 40 7 -12 12 -12 34 -1 14 8 37 26 52 42 l 27 28 -49 31 c -44 27 -50 29 -61 15 -9 -13 -12 -4 -15 47 -1 35 -2 91 0 126 3 56 5 61 18 47 12 -12 43 -15 147 -15 104 0 137 3 155 16 l 22 15 0 -100 c 0 -56 -4 -101 -8 -101 -4 0 -13 5 -18 10 -8 8 -27 -1 -62 -30 -29 -22 -52 -44 -52 -48 0 -4 26 -23 57 -42 38 -23 58 -31 61 -22 2 6 8 12 13 12 5 0 9 -27 9 -60 0 -33 -3 -60 -8 -60 -4 0 -13 9 -19 20 -7 10 -47 42 -88 70 l -75 51 -58 -46 c -31 -25 -65 -58 -74 -73 z m 150 168 c 2 0 33 23 68 51 36 28 69 60 75 71 6 11 8 26 5 34 -4 11 -34 14 -150 14 -91 0 -147 -4 -151 -11 -4 -5 -4 -21 -1 -34 4 -14 34 -43 78 -74 40 -28 74 -51 76 -51 z M 4926 -3012 c -15 -21 -16 -6 -15 182 0 155 3 200 11 182 11 -21 15 -22 160 -22 145 0 149 1 158 22 6 15 9 -50 9 -182 -1 -113 -3 -198 -6 -190 -3 8 -11 18 -17 22 -6 4 -73 8 -148 8 -130 0 -138 -1 -152 -22 z m 157 74 l 152 3 3 29 c 2 16 -2 32 -10 37 -7 5 -74 9 -149 9 -109 0 -139 -3 -149 -15 -7 -8 -10 -25 -6 -40 l 7 -26 152 3 z m 0 130 l 152 3 3 37 c 3 32 0 38 -20 43 -13 3 -81 4 -152 3 -105 -2 -131 -6 -139 -19 -5 -9 -7 -28 -3 -43 l 7 -27 152 3 z M 894 -2100 c -2 0 -4 8 -4 18 0 12 -37 39 -115 85 -63 37 -122 67 -133 67 -10 0 -23 -5 -30 -12 -7 -7 -12 -8 -12 -2 0 5 36 70 81 144 44 74 90 154 102 178 11 24 27 48 34 54 10 8 13 6 13 -11 0 -13 8 -22 22 -26 13 -3 65 -11 116 -18 51 -8 95 -11 97 -7 2 3 -25 45 -61 93 -35 48 -71 90 -79 94 -9 3 -23 -1 -32 -8 -10 -8 -3 11 17 49 18 34 36 62 40 62 5 0 6 -8 3 -18 -3 -12 32 -67 102 -162 59 -80 102 -146 96 -148 -6 -2 -83 6 -171 18 -89 12 -167 19 -175 16 -8 -3 -15 -14 -15 -24 0 -14 32 -38 115 -86 63 -36 123 -66 133 -66 10 0 24 6 31 12 11 11 11 9 1 -12 -7 -14 -48 -85 -92 -158 -44 -72 -81 -132 -84 -132 z m 26 93 c 17 1 26 9 28 22 2 16 -20 34 -113 88 -70 41 -125 67 -138 65 -15 -2 -22 -10 -22 -25 0 -18 22 -36 110 -87 68 -41 119 -64 135 -63 z m 60 100 c 17 1 26 9 28 22 2 16 -20 34 -113 88 -70 41 -125 67 -138 65 -15 -2 -22 -10 -22 -25 0 -18 22 -36 110 -87 68 -41 119 -64 135 -63 z M 4757 -2020 c -1 0 -14 19 -28 43 -15 23 -32 53 -39 67 -13 24 -13 25 7 7 13 -12 26 -15 39 -10 10 5 65 34 121 66 56 32 107 65 113 72 8 10 8 19 0 34 -7 13 -21 21 -38 21 -15 0 -96 -8 -179 -17 -84 -9 -156 -14 -159 -10 -3 3 37 61 89 129 51 68 99 133 106 146 7 12 9 27 6 32 -3 6 -2 10 3 10 4 0 18 -17 30 -39 12 -21 22 -42 22 -45 0 -4 -9 -2 -19 4 -17 8 -26 2 -63 -43 -24 -28 -59 -72 -78 -96 l -34 -44 90 7 c 49 4 105 11 124 14 24 6 36 14 40 31 4 18 16 3 69 -89 35 -61 61 -113 57 -117 -3 -3 -6 -1 -6 5 0 7 -10 12 -22 12 -13 0 -75 -31 -138 -68 -104 -62 -115 -71 -113 -95 1 -15 1 -27 0 -27 z M 1565 -1208 c -5 -3 -4 1 3 9 6 7 12 22 12 33 0 12 -31 73 -68 136 -55 93 -72 115 -90 114 -13 0 -19 3 -15 7 4 4 66 42 138 83 71 42 133 76 137 76 5 0 3 -9 -4 -20 -8 -13 -9 -23 -3 -29 6 -5 48 -39 95 -75 47 -36 87 -61 88 -55 2 5 -1 55 -8 110 -6 56 -14 107 -17 115 -3 8 -15 14 -27 14 -15 0 -6 10 34 35 30 19 58 35 62 35 4 0 1 -11 -6 -24 -10 -19 -8 -55 7 -190 11 -92 17 -170 13 -173 -3 -3 -49 27 -101 68 -53 41 -116 89 -142 107 -25 18 -51 31 -57 29 -6 -2 -12 -11 -14 -19 -2 -8 28 -69 66 -134 61 -104 73 -119 96 -119 14 1 22 -2 18 -6 -4 -4 -52 -33 -107 -64 -55 -32 -105 -60 -110 -63 z m 93 70 c 8 2 19 10 25 19 8 12 -2 38 -43 110 -29 52 -64 109 -77 127 -13 17 -28 32 -33 32 -5 0 -15 -7 -24 -15 -9 -10 -12 -22 -8 -33 4 -10 31 -60 61 -112 30 -52 61 -103 69 -113 9 -10 22 -16 30 -15 z M 3876 -1060 c -3 0 -6 11 -6 25 0 14 9 90 20 170 15 107 18 150 10 165 -6 11 -7 20 -3 20 4 0 26 -11 48 -25 32 -19 36 -24 19 -25 -12 0 -25 -7 -28 -16 -4 -9 -13 -64 -21 -122 -8 -58 -14 -107 -12 -109 2 -1 45 27 95 65 50 37 94 73 97 81 3 7 0 20 -6 27 -6 8 -8 14 -4 14 4 0 33 -14 64 -32 l 56 -32 -31 -7 c -17 -3 -90 -49 -161 -102 -72 -54 -133 -97 -137 -97 z M 2910 -784 c -5 -4 -15 5 -23 20 -7 16 -38 89 -67 162 -29 74 -60 137 -70 142 -10 5 -20 6 -24 3 -3 -3 -6 -73 -6 -155 0 -145 1 -149 22 -158 17 -6 3 -9 -52 -9 -55 0 -69 3 -52 9 21 9 22 13 22 160 0 147 -1 151 -22 160 -16 6 11 9 86 9 108 1 109 1 91 -19 -17 -19 -16 -23 25 -125 23 -58 46 -105 50 -105 4 0 26 43 49 96 22 52 41 104 41 114 0 11 -8 24 -18 29 -12 8 2 10 58 10 60 0 71 -2 53 -11 -15 -7 -41 -56 -88 -167 -37 -86 -71 -160 -75 -165 z "
       style="fill:#000000;fill-opacity:1" />
  </g>
</svg>
